<svg xmlns="http://www.w3.org/2000/svg" xmlns:xlink="http://www.w3.org/1999/xlink">

<symbol id="email" fill-rule="evenodd" clip-rule="evenodd" stroke-linejoin="round" stroke-miterlimit="1.414" viewBox="0 0 16 16"><path 
d="M1.75 2h12.5c.966 0 1.75.784 1.75 1.75v8.5A1.75 1.75 0 0 1 14.25 14H1.75A1.75 1.75 0 0 1 0 12.25v-8.5C0 2.784.784 2 1.75 2ZM1.5 12.251c0 .138.112.25.25.25h12.5a.25.25 0 0 0 .25-.25V5.809L8.38 9.397a.75.75 0 0 1-.76 0L1.5 5.809v6.442Zm13-8.181v-.32a.25.25 0 0 0-.25-.25H1.75a.25.25 0 0 0-.25.25v.32L8 7.88Z"  
style="stroke-width:0.0533111" />

</symbol>
<symbol id="github" fill-rule="evenodd" clip-rule="evenodd" stroke-linejoin="round" stroke-miterlimit="1.414" viewBox="0 0 16 16"><path d="M8 0C3.58 0 0 3.582 0 8c0 3.535 2.292 6.533 5.47 7.59.4.075.547-.172.547-.385 0-.19-.007-.693-.01-1.36-2.226.483-2.695-1.073-2.695-1.073-.364-.924-.89-1.17-.89-1.17-.725-.496.056-.486.056-.486.803.056 1.225.824 1.225.824.714 1.223 1.873.87 2.33.665.072-.517.278-.87.507-1.07-1.777-.2-3.644-.888-3.644-3.953 0-.873.31-1.587.823-2.147-.09-.202-.36-1.015.07-2.117 0 0 .67-.215 2.2.82.64-.178 1.32-.266 2-.27.68.004 1.36.092 2 .27 1.52-1.035 2.19-.82 2.19-.82.43 1.102.16 1.915.08 2.117.51.56.82 1.274.82 2.147 0 3.073-1.87 3.75-3.65 3.947.28.24.54.73.54 1.48 0 1.07-.01 1.93-.01 2.19 0 .21.14.46.55.38C13.71 14.53 16 11.53 16 8c0-4.418-3.582-8-8-8"/>
</symbol>
<symbol id="instagram" fill-rule="evenodd" clip-rule="evenodd" stroke-linejoin="round" stroke-miterlimit="1.414" viewBox="0 0 16 16"><path d="M8 0C5.827 0 5.555.01 4.702.048 3.85.088 3.27.222 2.76.42c-.526.204-.973.478-1.417.923-.445.444-.72.89-.923 1.417-.198.51-.333 1.09-.372 1.942C.008 5.555 0 5.827 0 8s.01 2.445.048 3.298c.04.852.174 1.433.372 1.942.204.526.478.973.923 1.417.444.445.89.72 1.417.923.51.198 1.09.333 1.942.372.853.04 1.125.048 3.298.048s2.445-.01 3.298-.048c.852-.04 1.433-.174 1.942-.372.526-.204.973-.478 1.417-.923.445-.444.72-.89.923-1.417.198-.51.333-1.09.372-1.942.04-.853.048-1.125.048-3.298s-.01-2.445-.048-3.298c-.04-.852-.174-1.433-.372-1.942-.204-.526-.478-.973-.923-1.417-.444-.445-.89-.72-1.417-.923-.51-.198-1.09-.333-1.942-.372C10.445.008 10.173 0 8 0zm0 1.44c2.136 0 2.39.01 3.233.048.78.036 1.203.166 1.485.276.374.145.64.318.92.598.28.28.453.546.598.92.11.282.24.705.276 1.485.038.844.047 1.097.047 3.233s-.01 2.39-.05 3.233c-.04.78-.17 1.203-.28 1.485-.15.374-.32.64-.6.92-.28.28-.55.453-.92.598-.28.11-.71.24-1.49.276-.85.038-1.1.047-3.24.047s-2.39-.01-3.24-.05c-.78-.04-1.21-.17-1.49-.28-.38-.15-.64-.32-.92-.6-.28-.28-.46-.55-.6-.92-.11-.28-.24-.71-.28-1.49-.03-.84-.04-1.1-.04-3.23s.01-2.39.04-3.24c.04-.78.17-1.21.28-1.49.14-.38.32-.64.6-.92.28-.28.54-.46.92-.6.28-.11.7-.24 1.48-.28.85-.03 1.1-.04 3.24-.04zm0 2.452c-2.27 0-4.108 1.84-4.108 4.108 0 2.27 1.84 4.108 4.108 4.108 2.27 0 4.108-1.84 4.108-4.108 0-2.27-1.84-4.108-4.108-4.108zm0 6.775c-1.473 0-2.667-1.194-2.667-2.667 0-1.473 1.194-2.667 2.667-2.667 1.473 0 2.667 1.194 2.667 2.667 0 1.473-1.194 2.667-2.667 2.667zm5.23-6.937c0 .53-.43.96-.96.96s-.96-.43-.96-.96.43-.96.96-.96.96.43.96.96z"/>
</symbol>
<symbol id="linkedin" fill-rule="evenodd" clip-rule="evenodd" stroke-linejoin="round" stroke-miterlimit="1.414" viewBox="0 0 16 16"><path d="M13.632 13.635h-2.37V9.922c0-.886-.018-2.025-1.234-2.025-1.235 0-1.424.964-1.424 1.96v3.778h-2.37V6H8.51v1.04h.03c.318-.6 1.092-1.233 2.247-1.233 2.4 0 2.845 1.58 2.845 3.637v4.188zM3.558 4.955c-.762 0-1.376-.617-1.376-1.377 0-.758.614-1.375 1.376-1.375.76 0 1.376.617 1.376 1.375 0 .76-.617 1.377-1.376 1.377zm1.188 8.68H2.37V6h2.376v7.635zM14.816 0H1.18C.528 0 0 .516 0 1.153v13.694C0 15.484.528 16 1.18 16h13.635c.652 0 1.185-.516 1.185-1.153V1.153C16 .516 15.467 0 14.815 0z"/>
</symbol>
<symbol id="pinterest" fill-rule="evenodd" clip-rule="evenodd" stroke-linejoin="round" stroke-miterlimit="1.414" viewBox="0 0 16 16"><path d="M8 0C3.582 0 0 3.582 0 8c0 3.39 2.108 6.285 5.084 7.45-.07-.633-.133-1.604.028-2.295.146-.625.938-3.977.938-3.977s-.24-.48-.24-1.188c0-1.11.646-1.943 1.448-1.943.683 0 1.012.513 1.012 1.127 0 .687-.436 1.713-.662 2.664-.19.797.4 1.445 1.185 1.445 1.42 0 2.514-1.498 2.514-3.662 0-1.91-1.376-3.25-3.342-3.25-2.276 0-3.61 1.71-3.61 3.47 0 .69.263 1.43.593 1.83.066.08.075.15.057.23-.06.25-.196.8-.223.91-.035.15-.115.18-.268.11C3.516 10.46 2.89 9 2.89 7.82c0-2.52 1.834-4.84 5.287-4.84 2.774 0 4.932 1.98 4.932 4.62 0 2.76-1.74 4.98-4.16 4.98-.81 0-1.57-.42-1.84-.92l-.5 1.9c-.18.698-.67 1.57-1 2.1.75.23 1.54.357 2.37.357 4.41 0 8-3.58 8-8s-3.59-8-8-8z"/></symbol>
<symbol id="x" fill-rule="evenodd" clip-rule="evenodd" stroke-linejoin="round" stroke-miterlimit="1.414" viewBox="0 0 16 16"><path
d="M 9.5237333,6.7756869 15.481067,0 h -1.4112 L 8.8949333,5.8820316 4.7648,0 H 0 L 6.2469333,8.8955204 0,16 H 1.4112 L 6.8725333,9.7870441 11.2352,16 H 16 M 1.9205333,1.0412656 h 2.168 L 14.0688,15.009892 h -2.168533"
style="stroke-width:0.0533111" />
</symbol>
<symbol id="mastodon" fill-rule="evenodd" clip-rule="evenodd" stroke-linejoin="round" stroke-miterlimit="1.414" viewBox="0 0 16 16"><path d="M15.195,5.352c0-3.347-2.193-4.328-2.193-4.328c-1.104-0.508-3.004-0.721-4.977-0.737H7.977 c-1.973,0.016-3.87,0.229-4.976,0.737c0,0-2.193,0.981-2.193,4.328c0,0.766-0.015,1.683,0.009,2.654c0.08,3.272,0.6,6.499,3.626,7.3 c1.396,0.369,2.594,0.446,3.559,0.394c1.75-0.097,2.732-0.624,2.732-0.624l-0.058-1.27c0,0-1.25,0.395-2.655,0.346 c-1.391-0.047-2.86-0.149-3.085-1.857c-0.021-0.15-0.031-0.312-0.031-0.479c0,0,1.365,0.334,3.096,0.413 c1.059,0.049,2.051-0.062,3.059-0.182c1.934-0.231,3.616-1.422,3.828-2.51C15.224,7.821,15.195,5.352,15.195,5.352z M12.609,9.664 h-1.606V5.73c0-0.83-0.349-1.25-1.047-1.25c-0.772,0-1.158,0.5-1.158,1.486V8.12H7.202V5.966c0-0.987-0.387-1.486-1.158-1.486 c-0.698,0-1.046,0.421-1.046,1.25v3.933H3.391V5.611c0-0.829,0.211-1.487,0.634-1.974c0.437-0.487,1.009-0.736,1.719-0.736 c0.822,0,1.444,0.315,1.855,0.947L8,4.519l0.4-0.67c0.412-0.632,1.033-0.947,1.855-0.947c0.71,0,1.282,0.25,1.72,0.736 c0.423,0.487,0.635,1.145,0.635,1.974V9.664z"/>
</symbol>
<symbol id="telegram" fill-rule="evenodd" clip-rule="evenodd" stroke-linejoin="round" stroke-miterlimit="1.414" viewBox="0 0 16 16"><path d="M10.563,11.596l1.286-6.063c0.053-0.256,0.022-0.44-0.092-0.551c-0.113-0.111-0.264-0.131-0.45-0.061l-7.56,2.914 C3.579,7.897,3.463,7.971,3.402,8.052C3.34,8.134,3.333,8.211,3.38,8.284s0.14,0.13,0.28,0.171l1.934,0.604l4.489-2.826 c0.123-0.082,0.216-0.099,0.28-0.053c0.041,0.029,0.029,0.073-0.035,0.131L6.696,9.592l-0.14,1.996c0.134,0,0.265-0.064,0.394-0.193 l0.945-0.91l1.96,1.444C10.229,12.139,10.465,12.027,10.563,11.596z M15.84,8c0,1.062-0.207,2.077-0.621,3.045 c-0.414,0.969-0.972,1.803-1.671,2.503c-0.7,0.699-1.534,1.257-2.503,1.671C10.077,15.633,9.062,15.84,8,15.84 s-2.077-0.207-3.045-0.621c-0.969-0.414-1.803-0.972-2.502-1.671c-0.7-0.7-1.257-1.534-1.671-2.503C0.367,10.077,0.16,9.062,0.16,8 s0.207-2.077,0.621-3.045c0.414-0.969,0.971-1.803,1.671-2.502c0.7-0.7,1.534-1.257,2.502-1.671C5.923,0.367,6.938,0.16,8,0.16 s2.077,0.207,3.045,0.621c0.969,0.414,1.803,0.971,2.503,1.671c0.699,0.7,1.257,1.534,1.671,2.502C15.633,5.923,15.84,6.938,15.84,8 z"/>
</symbol>
<symbol id="bluesky" fill-rule="evenodd" clip-rule="evenodd" stroke-linejoin="round" stroke-miterlimit="1.414" viewBox="0 0 16 16"><path d="m 3.46821,1.9044433 c 1.83436,1.37712 3.80743,4.16936 4.53184,5.66783 0.72446,-1.49836 2.69742,-4.29073 4.53183,-5.66783 C 13.85546,0.91076333 16,0.14191333 16,2.5884433 c 0,0.4886 -0.28014,4.10453 -0.44444,4.69156 -0.57111,2.04092 -2.65223,2.56147 -4.50342,2.24641 3.23584,0.5507297 4.05901,2.3749397 2.28128,4.1991497 -3.37625,3.46453 -4.85266,-0.86927 -5.23114,-1.97974 -0.0693,-0.20358 -0.1018,-0.29881 -0.10228,-0.21783 -4.8e-4,-0.081 -0.0329,0.0143 -0.10228,0.21783 -0.37832,1.11047 -1.85469,5.44438 -5.23114,1.97974 C 0.88882,11.901353 1.71196,10.077033 4.94786,9.5264133 3.09662,9.8414733 1.01547,9.3209233 0.44444,7.2800033 0.28013,6.6929133 0,3.0769933 0,2.5884433 0,0.14191333 2.14459,0.91076333 3.46812,1.9044433 Z"/>
</symbol>
<symbol id="url" fill-rule="evenodd" clip-rule="evenodd" stroke-linejoin="round" stroke-miterlimit="1.414" viewBox="0 0 16 16"><path 
d="m7.775 3.275 1.25-1.25a3.5 3.5 0 1 1 4.95 4.95l-2.5 2.5a3.5 3.5 0 0 1-4.95 0 .751.751 0 0 1 .018-1.042.751.751 0 0 1 1.042-.018 1.998 1.998 0 0 0 2.83 0l2.5-2.5a2.002 2.002 0 0 0-2.83-2.83l-1.25 1.25a.751.751 0 0 1-1.042-.018.751.751 0 0 1-.018-1.042Zm-4.69 9.64a1.998 1.998 0 0 0 2.83 0l1.25-1.25a.751.751 0 0 1 1.042.018.751.751 0 0 1 .018 1.042l-1.25 1.25a3.5 3.5 0 1 1-4.95-4.95l2.5-2.5a3.5 3.5 0 0 1 4.95 0 .751.751 0 0 1-.018 1.042.751.751 0 0 1-1.042.018 1.998 1.998 0 0 0-2.83 0l-2.5 2.5a1.998 1.998 0 0 0 0 2.83Z"
style="stroke-width:0.0533111" />
</symbol>
<symbol id="rss" fill-rule="evenodd" clip-rule="evenodd" stroke-linejoin="round" stroke-miterlimit="1.414" viewBox="0 0 16 16"><path d="M12.8 16C12.8 8.978 7.022 3.2 0 3.2V0c8.777 0 16 7.223 16 16h-3.2zM2.194 11.61c1.21 0 2.195.985 2.195 2.196 0 1.21-.99 2.194-2.2 2.194C.98 16 0 15.017 0 13.806c0-1.21.983-2.195 2.194-2.195zM10.606 16h-3.11c0-4.113-3.383-7.497-7.496-7.497v-3.11c5.818 0 10.606 4.79 10.606 10.607z"/>
</symbol>
</svg>
